<?xml version="1.0" encoding="utf-8"?>
<!-- Generator: Adobe Illustrator 25.2.0, SVG Export Plug-In . SVG Version: 6.00 Build 0)  -->
<svg version="1.1" id="Layer_1" xmlns="http://www.w3.org/2000/svg" xmlns:xlink="http://www.w3.org/1999/xlink" x="0px" y="0px"
	 viewBox="0 0 729.71 156.09" style="enable-background:new 0 0 729.71 156.09;" xml:space="preserve">
<style type="text/css">
	.st0{fill:#E44332;}
	.st1{fill:#FFFFFF;}
	.st2{fill:#F7F7F7;}
</style>
<path class="st0" d="M132.9,0H23.19C10.38,0,0,10.38,0,23.19V132.9c0,12.8,10.38,23.19,23.19,23.19H132.9
	c12.81,0,23.19-10.38,23.19-23.19V23.19C156.09,10.38,145.71,0,132.9,0z M64.47,125.38L64.47,125.38h-0.01L22.44,83.36l21.02-21.02
	l21.01,21.01l52.66-52.65l21.02,21.01L64.47,125.38z"/>
<path class="st0" d="M2231.23,139.11h-195.56c-22.83,0-41.33-18.51-41.33-41.33V-97.78c0-22.83,18.51-41.33,41.33-41.33h195.56
	c22.83,0,41.33,18.51,41.33,41.33V97.78C2272.56,120.61,2254.06,139.11,2231.23,139.11z"/>
<rect x="2064.03" y="-24.76" transform="matrix(0.7071 -0.7071 0.7071 0.7071 592.3551 1486.4791)" class="st1" width="52.97" height="105.92"/>
<rect x="2129.7" y="-92.85" transform="matrix(-0.7071 -0.7071 0.7071 -0.7071 3680.8325 1524.6508)" class="st1" width="52.97" height="185.7"/>
<g>
	<path class="st2" d="M267.93,47.42h-26.26v71.43h-17.67V47.42H198.1V33.11h69.84V47.42z"/>
	<path class="st2" d="M261.99,86.4c0-6.32,1.22-11.95,3.65-16.9c2.43-4.95,5.94-8.77,10.51-11.48c4.57-2.71,9.88-4.06,15.93-4.06
		c8.6,0,15.61,2.63,21.05,7.89c5.44,5.26,8.47,12.41,9.1,21.43l0.12,4.36c0,9.77-2.73,17.62-8.18,23.52
		c-5.46,5.91-12.78,8.86-21.96,8.86c-9.19,0-16.52-2.94-21.99-8.83c-5.48-5.89-8.21-13.9-8.21-24.03V86.4z M279,87.61
		c0,6.05,1.14,10.69,3.42,13.89c2.28,3.21,5.53,4.81,9.77,4.81c4.12,0,7.34-1.58,9.66-4.75s3.48-8.23,3.48-15.19
		c0-5.94-1.16-10.54-3.48-13.8c-2.32-3.26-5.57-4.9-9.77-4.9c-4.16,0-7.38,1.62-9.66,4.87C280.14,75.78,279,80.8,279,87.61z"/>
	<path class="st2" d="M333.94,118.84V33.11h26.38c7.54,0,14.28,1.7,20.23,5.09c5.95,3.4,10.59,8.22,13.93,14.49
		c3.34,6.26,5.01,13.38,5.01,21.35v3.95c0,7.97-1.64,15.06-4.92,21.26c-3.28,6.2-7.9,11.01-13.87,14.43
		c-5.97,3.41-12.7,5.14-20.2,5.18H333.94z M351.61,47.42v57.24h8.54c6.91,0,12.19-2.26,15.84-6.77c3.65-4.51,5.51-10.97,5.59-19.37
		v-4.53c0-8.72-1.81-15.32-5.42-19.81c-3.61-4.49-8.89-6.74-15.84-6.74H351.61z"/>
	<path class="st2" d="M408.55,86.4c0-6.32,1.22-11.95,3.65-16.9c2.43-4.95,5.94-8.77,10.51-11.48c4.57-2.71,9.88-4.06,15.93-4.06
		c8.6,0,15.61,2.63,21.05,7.89c5.44,5.26,8.47,12.41,9.1,21.43l0.12,4.36c0,9.77-2.73,17.62-8.18,23.52
		c-5.46,5.91-12.78,8.86-21.96,8.86s-16.52-2.94-21.99-8.83c-5.48-5.89-8.21-13.9-8.21-24.03V86.4z M425.57,87.61
		c0,6.05,1.14,10.69,3.42,13.89c2.28,3.21,5.53,4.81,9.77,4.81c4.12,0,7.34-1.58,9.66-4.75s3.48-8.23,3.48-15.19
		c0-5.94-1.16-10.54-3.48-13.8c-2.32-3.26-5.57-4.9-9.77-4.9c-4.16,0-7.38,1.62-9.66,4.87C426.71,75.78,425.57,80.8,425.57,87.61z"
		/>
	<path class="st2" d="M512.48,88.99h-33.15V75.27h33.15V88.99z"/>
	<path class="st2" d="M575.67,101.18H544.7l-5.89,17.67h-18.78l31.92-85.74h16.37l32.09,85.74h-18.78L575.67,101.18z M549.46,86.87
		h21.43l-10.78-32.09L549.46,86.87z"/>
	<path class="st2" d="M661.82,87.57c0,9.81-2.23,17.68-6.68,23.58c-4.46,5.91-10.47,8.86-18.05,8.86c-6.44,0-11.64-2.24-15.61-6.71
		v30.03h-17.02V55.13h15.78l0.59,6.24c4.12-4.95,9.5-7.42,16.13-7.42c7.85,0,13.96,2.91,18.31,8.72c4.36,5.81,6.54,13.82,6.54,24.02
		V87.57z M644.8,86.34c0-5.93-1.05-10.5-3.15-13.72c-2.1-3.22-5.15-4.83-9.16-4.83c-5.34,0-9.01,2.04-11.01,6.12V100
		c2.08,4.2,5.79,6.3,11.13,6.3C640.74,106.3,644.8,99.65,644.8,86.34z"/>
	<path class="st2" d="M729.71,87.57c0,9.81-2.23,17.68-6.68,23.58c-4.46,5.91-10.47,8.86-18.05,8.86c-6.44,0-11.64-2.24-15.61-6.71
		v30.03h-17.02V55.13h15.78l0.59,6.24c4.12-4.95,9.5-7.42,16.13-7.42c7.85,0,13.96,2.91,18.31,8.72c4.36,5.81,6.54,13.82,6.54,24.02
		V87.57z M712.7,86.34c0-5.93-1.05-10.5-3.15-13.72c-2.1-3.22-5.15-4.83-9.16-4.83c-5.34,0-9.01,2.04-11.01,6.12V100
		c2.08,4.2,5.79,6.3,11.13,6.3C708.63,106.3,712.7,99.65,712.7,86.34z"/>
</g>
</svg>
